# xmcd
#
# Track frame offsets:
#	150
#	16822
#	34964
#	46740
#	64276
#	74869
#	94933
#	109307
#	124651
#	136267
#	146090
#	159400
#	170824
#	181699
#	196312
#	212585
#	227359
#
# Disc length: 3193 seconds
#
# Revision: 1
# Processed by: cddbd v1.4PL0 Copyright (c) Steve Scherf et al.
# Submitted via: audiograbber 1.82.02
#
DISCID=f40c7711
DTITLE=Various Artist - The Very Best Of Country Gold  Disc Three
DYEAR=2003
DGENRE=Country
TTITLE0=Eva Cassidy - Penny To My Name
TTITLE1=Billy Swan - I Can Help
TTITLE2=The Byrds - You Ain't Goin' Nowhere (Album Version)
TTITLE3=The Judds - Love Can Build A Bridge
TTITLE4=Crystal Gayle - Ctying In The Rain
TTITLE5=Lesley King - You've Got A Friend
TTITLE6=Regina Gilbert - Don't Know Why
TTITLE7=Glen Houston - Gentle On My Mind
TTITLE8=Jolene Parsons - Don't It Make Your Brown Eyes Blue
TTITLE9=Ned Miller - From A Jack To A King
TTITLE10=Dottie West - DIVORCE
TTITLE11=Lost Angels - Mr Tamborine Man
TTITLE12=Don Williams - Always Something There To Remind Me
TTITLE13=Flora Vasconcelos - Come Away With Me
TTITLE14=Kenny Rogers - Wind Beneath My Wings
TTITLE15=Don Gibson - I Can't Stop Lovin' You
TTITLE16=Johnny Cash - I Walk The Line
EXTD=
EXTT0=
EXTT1=
EXTT2=
EXTT3=
EXTT4=
EXTT5=
EXTT6=
EXTT7=
EXTT8=
EXTT9=
EXTT10=
EXTT11=
EXTT12=
EXTT13=
EXTT14=
EXTT15=
EXTT16=
PLAYORDER=
